# xmcd CD database file
#
# Track frame offsets:
#	150
#	12725
#	26572
#	37397
#	50187
#	60927
#	71868
#	84624
#	94584
#	108327
#	121577
#	131214
#	143215
#	155935
#	169548
#	181050
#	193709
#	206120
#	215909
#	228773
#	240370
#	255612
#	267009
#	284289
#
# Disc length: 3964 seconds
#
# Revision: 0
# Processed by: cddbd v1.5.2PL0 Copyright (c) Steve Scherf et al.
# Submitted via: CDex 1.51
#
DISCID=660f7a18
DTITLE=Howlin Wolf - The Best Of Howlin Smokestack Lightnin [CD01)
DYEAR=2011
DGENRE=Blues
TTITLE0=Spoonful
TTITLE1=Smokestack Lightnin'
TTITLE2=Wang-Dang-Doodle
TTITLE3=Back Door Man
TTITLE4=Who's Been Talking?
TTITLE5=Somebody In My Home
TTITLE6=Killing Floor
TTITLE7=Do The Do
TTITLE8=Three Hundred Pounds Of Joy
TTITLE9=Tail Dragger
TTITLE10=So Glad
TTITLE11=Going Back Home
TTITLE12=I Asked For Water (She Gave Me Gasoline)
TTITLE13=My Life
TTITLE14=Poor Boy
TTITLE15=Moanin' For My Baby
TTITLE16=Howlin' Blues
TTITLE17=The Natchez Burnin'
TTITLE18=You Gonna Wreck My Life
TTITLE19=Howlin' For My Darlin'
TTITLE20=Goin' Down Slow
TTITLE21=Sitting On Top Of The World
TTITLE22=The Red Rooster
TTITLE23=I Ain't Superstitious
EXTD=YEAR: 2011
EXTT0=
EXTT1=
EXTT2=
EXTT3=
EXTT4=
EXTT5=
EXTT6=
EXTT7=
EXTT8=
EXTT9=
EXTT10=
EXTT11=
EXTT12=
EXTT13=
EXTT14=
EXTT15=
EXTT16=
EXTT17=
EXTT18=
EXTT19=
EXTT20=
EXTT21=
EXTT22=
EXTT23=
PLAYORDER=
